<?xml version="1.0" encoding="UTF-8"?>
<svg version="1.1" xmlns="http://www.w3.org/2000/svg" width="271" height="176">
<path d="M0 0 C89.43 0 178.86 0 271 0 C271 58.08 271 116.16 271 176 C181.57 176 92.14 176 0 176 C0 117.92 0 59.84 0 0 Z " fill="#090406" transform="translate(0,0)"/>
<path d="M0 0 C1.98 0 3.96 0 6 0 C6.268125 0.763125 6.53625 1.52625 6.8125 2.3125 C7.76129388 4.94801495 7.76129388 4.94801495 9.34765625 6.23046875 C11.75265001 8.80602945 13.10415234 11.85762669 14.625 15 C14.96692383 15.69480469 15.30884766 16.38960937 15.66113281 17.10546875 C18.78856126 23.49028203 21.8326458 29.9159762 24.85400391 36.3515625 C26.60417566 40.07757974 28.38765603 43.7739753 30.265625 47.4375 C32 51 32 51 32 53 C32.66 53 33.32 53 34 53 C34.66 54.65 35.32 56.3 36 58 C37.95019393 57.73575139 37.95019393 57.73575139 40 57 C41.53779295 54.34863285 42.76248796 51.79541554 44 49 C44.88716698 47.08732459 45.7827406 45.17870018 46.6784668 43.27001953 C47.59564545 41.31264626 48.5053517 39.35194058 49.4140625 37.390625 C50.57597911 34.90652742 51.75411144 32.44243501 53 30 C53.66 30 54.32 30 55 30 C55.2475 29.21625 55.495 28.4325 55.75 27.625 C57.33931493 23.01598671 59.16207173 18.51452284 61 14 C61.66 14 62.32 14 63 14 C63 31.16 63 48.32 63 66 C64.32 66 65.64 66 67 66 C67 46.53 67 27.06 67 7 C64.69 7.33 62.38 7.66 60 8 C58.2139517 10.43303551 58.2139517 10.43303551 57.3125 13.5625 C56.92320312 14.64144531 56.53390625 15.72039063 56.1328125 16.83203125 C55.75898438 17.87746094 55.38515625 18.92289063 55 20 C53.74049274 22.71246824 52.3784723 25.34516446 51 28 C50.34 28 49.68 28 49 28 C48.773125 29.11375 48.54625 30.2275 48.3125 31.375 C47.01939103 36.64182339 44.55263105 41.2454811 42 46 C41.34 46 40.68 46 40 46 C39.34 47.98 38.68 49.96 38 52 C37.34 52 36.68 52 36 52 C35.5875 50.989375 35.175 49.97875 34.75 48.9375 C33.40197427 45.77312035 31.76372476 42.87984472 30.01953125 39.9140625 C28.91529591 37.840977 28.08351305 35.75827446 27.25 33.5625 C23.3849481 23.57141723 18.30125289 13.88926883 12.8125 4.69921875 C12 3 12 3 12 0 C14.97 0 17.94 0 21 0 C29.4232047 16.29440327 29.4232047 16.29440327 32.11328125 24.86328125 C33.07353943 27.17720734 34.19308159 28.3066311 36 30 C36.35169068 31.32860925 36.68770276 32.66158328 37 34 C37.99 34.495 37.99 34.495 39 35 C39.09531006 34.32042236 39.19062012 33.64084473 39.28881836 32.94067383 C40.16081044 29.3350629 41.69858601 26.22929503 43.37890625 22.94921875 C43.87619484 21.96100883 43.87619484 21.96100883 44.38352966 20.95283508 C45.43755842 18.86149094 46.4998795 16.77448954 47.5625 14.6875 C48.28115158 13.26525306 48.99925659 11.8427298 49.71679688 10.41992188 C51.47055234 6.94282288 53.23547074 3.47172725 55 0 C61.6 0 68.2 0 75 0 C75 24.42 75 48.84 75 74 C68.4 74 61.8 74 55 74 C54.505 61.625 54.505 61.625 54 49 C51.08111218 54.54862286 51.08111218 54.54862286 48.16625977 60.09936523 C47.62183228 61.13105835 47.62183228 61.13105835 47.06640625 62.18359375 C46.69459229 62.89056396 46.32277832 63.59753418 45.93969727 64.32592773 C45 66 45 66 44 67 C41.81360547 67.07258946 39.62499611 67.08373783 37.4375 67.0625 C35.64119141 67.04896484 35.64119141 67.04896484 33.80859375 67.03515625 C32.41833984 67.01775391 32.41833984 67.01775391 31 67 C25.61499089 56.94852612 20.34155615 46.89662629 15.66796875 36.4921875 C13.63363499 32.23295007 11.29229726 28.12613507 9 24 C8.67 37.86 8.34 51.72 8 66 C9.32 66 10.64 66 12 66 C12 58.41 12 50.82 12 43 C16.47072316 45.23536158 17.2460142 46.29830813 19.23242188 50.59765625 C20.64509942 55.01901345 20.41476723 59.4055292 20.25 64 C20.23195312 64.96550781 20.21390625 65.93101563 20.1953125 66.92578125 C20.14860935 69.28429037 20.07688212 71.6422817 20 74 C13.4 74 6.8 74 0 74 C0 49.58 0 25.16 0 0 Z " fill="#EBEAEA" transform="translate(130,39)"/>
<path d="M0 0 C2.40625 1.9375 2.40625 1.9375 3.40625 4.9375 C4.71825404 6.29182675 6.05256404 7.62483482 7.40625 8.9375 C9.69638653 12.3727048 9.58467973 13.922831 9.40625 17.9375 C5.84418278 18.08317407 2.28288449 18.17169196 -1.28125 18.25 C-2.28865234 18.29189453 -3.29605469 18.33378906 -4.33398438 18.37695312 C-11.91432593 18.50204127 -11.91432593 18.50204127 -15.55078125 15.48046875 C-16.22496094 14.64128906 -16.89914063 13.80210938 -17.59375 12.9375 C-22.96660804 10.79878952 -29.62119992 11.66542413 -35.21875 12.4375 C-40.94160058 14.98098915 -45.15051375 19.23143203 -48.09375 24.75 C-49.28197967 32.32496413 -49.14109076 39.67757884 -46.59375 46.9375 C-44.29341669 49.83146771 -43.11071795 50.76517735 -39.59375 51.9375 C-39.59375 52.5975 -39.59375 53.2575 -39.59375 53.9375 C-31.98425843 56.84357884 -23.40947148 57.4431907 -15.5703125 54.9921875 C-10.76316981 52.69688514 -7.05416924 49.97465578 -3.59375 45.9375 C-4.66625 46.246875 -5.73875 46.55625 -6.84375 46.875 C-9.42241222 47.60562096 -11.98887102 48.31232904 -14.59375 48.9375 C-14.59375 49.5975 -14.59375 50.2575 -14.59375 50.9375 C-23.16649786 52.39669113 -31.66578089 53.18205697 -39.59375 48.9375 C-43.66658883 45.94475102 -46.21081156 43.04505902 -47.12890625 37.9921875 C-47.30321764 31.94434011 -46.48615017 27.24023364 -43.59375 21.9375 C-42.60375 21.9375 -41.61375 21.9375 -40.59375 21.9375 C-40.66335937 22.72253906 -40.73296875 23.50757813 -40.8046875 24.31640625 C-41.25878524 30.5150576 -41.25878524 30.5150576 -39.2578125 36.22265625 C-37.63872271 38.06576936 -37.63872271 38.06576936 -35.90625 39.6328125 C-35.473125 40.06335938 -35.04 40.49390625 -34.59375 40.9375 C-34.59375 41.5975 -34.59375 42.2575 -34.59375 42.9375 C-31.66237497 43.75102381 -28.88329486 44.21527869 -25.84375 44.375 C-24.64492187 44.46587891 -24.64492187 44.46587891 -23.421875 44.55859375 C-20.28243789 43.86913173 -19.38716196 43.00592956 -17.015625 40.93359375 C-11.85212723 36.82239296 -6.95078884 37.25220649 -0.59375 37.5625 C0.46714844 37.58957031 1.52804688 37.61664063 2.62109375 37.64453125 C5.21830579 37.71472617 7.81117105 37.81298219 10.40625 37.9375 C8.45574721 46.60768064 2.47019193 53.81267938 -4.59375 58.9375 C-5.25375 58.9375 -5.91375 58.9375 -6.59375 58.9375 C-6.59375 59.9275 -6.59375 60.9175 -6.59375 61.9375 C-16.14099811 64.8751148 -26.78263521 66.9193094 -36.59375 63.9375 C-36.59375 63.2775 -36.59375 62.6175 -36.59375 61.9375 C-37.83125 62.1540625 -37.83125 62.1540625 -39.09375 62.375 C-44.35260492 61.71764313 -47.15783995 58.8359364 -50.59375 54.9375 C-52.21696561 52.36422584 -53.42646599 49.74013736 -54.59375 46.9375 C-54.94953125 46.33164063 -55.3053125 45.72578125 -55.671875 45.1015625 C-59.09765364 37.0596923 -56.53862874 26.59740472 -53.77734375 18.71484375 C-50.57689447 11.20487861 -44.75882776 7.51421362 -37.59375 3.9375 C-31.41024059 1.81231871 -23.15138877 1.82044378 -16.96875 3.76171875 C-14.13594653 5.16249841 -11.82993995 6.70131005 -9.59375 8.9375 C-7.60553687 9.33514263 -5.60430661 9.67525349 -3.59375 9.9375 C-5.22201826 8.21054881 -6.8735558 6.56947911 -8.59375 4.9375 C-9.05523437 4.46054687 -9.51671875 3.98359375 -9.9921875 3.4921875 C-14.82383764 -0.7998875 -19.70582768 -0.67447488 -25.96484375 -0.40234375 C-38.62307682 0.78308819 -45.57597888 4.76578352 -53.7734375 14.53515625 C-58.66779543 20.99444836 -59.49831993 28.08906571 -60.59375 35.9375 C-61.25375 35.6075 -61.91375 35.2775 -62.59375 34.9375 C-63.19173208 22.62903546 -62.68197026 13.25310127 -54.21875 3.5625 C-52.69447358 2.00363708 -51.15456557 0.45977691 -49.59375 -1.0625 C-49.10003906 -1.60003906 -48.60632813 -2.13757812 -48.09765625 -2.69140625 C-34.80308592 -15.90707705 -13.06889718 -8.71259812 0 0 Z " fill="#EAEAEA" transform="translate(116.59375,48.0625)"/>
<path d="M0 0 C0.33 0 0.66 0 1 0 C1 24.42 1 48.84 1 74 C0.67 74 0.34 74 0 74 C-0.33 66.41 -0.66 58.82 -1 51 C-3.09040769 54.45037107 -3.09040769 54.45037107 -5 58 C-5.66 58 -6.32 58 -7 58 C-5.7702107 53.93223538 -4.238962 50.60074162 -2 47 C-5.66820453 46.99368173 -9.33254777 47.05370081 -13 47.125 C-14.54494141 47.12113281 -14.54494141 47.12113281 -16.12109375 47.1171875 C-22.74985388 47.28607311 -26.29245161 48.31229537 -31.31054688 52.65966797 C-33.62420895 54.49521779 -35.33815528 54.68786095 -38.25 54.5 C-39.05953125 54.4690625 -39.8690625 54.438125 -40.703125 54.40625 C-46.34833426 53.40777761 -49.20281882 50.14722188 -52.58203125 45.73046875 C-55.04973179 40.97861565 -54.55483831 36.20491173 -54 31 C-57.43790124 33.98947934 -57.81619514 36.35040951 -58.30859375 40.76953125 C-58.64062902 47.87508812 -58.64062902 47.87508812 -55.5625 54.0625 C-48.36356745 60.87904122 -39.48226153 60.32591608 -30.18359375 60.10546875 C-28.60771484 60.05326172 -28.60771484 60.05326172 -27 60 C-27 59.34 -27 58.68 -27 58 C-23.28026121 55.15549386 -20.62609198 54.6772494 -16 55 C-17.37906015 58.32388856 -18.72868981 59.79712016 -21.8125 61.625 C-22.47894531 62.02976563 -23.14539063 62.43453125 -23.83203125 62.8515625 C-28.86445129 65.51738501 -32.69056339 66.29513765 -38.4375 66.3125 C-39.71496094 66.32925781 -40.99242188 66.34601563 -42.30859375 66.36328125 C-46.20648831 65.97967893 -48.64521609 64.96516708 -52 63 C-52 62.34 -52 61.68 -52 61 C-52.5775 60.9175 -53.155 60.835 -53.75 60.75 C-56.81985265 59.72671578 -58.0198135 58.57424245 -60 56 C-62.5910551 48.61549297 -63.02742169 40.97269721 -61.0625 33.375 C-57.7470958 27.94979313 -53.42505858 21.85851206 -47.0234375 20.25390625 C-33.84918033 19.14754098 -33.84918033 19.14754098 -29 22 C-28.52820313 22.6703125 -28.05640625 23.340625 -27.5703125 24.03125 C-23.41165219 27.21660683 -18.84787814 26.67883673 -13.75 26.75 C-12.71875 26.77964844 -11.6875 26.80929688 -10.625 26.83984375 C-8.08325505 26.91044778 -5.54242217 26.96319009 -3 27 C-2.67 25.68 -2.34 24.36 -2 23 C-1.505 23.99 -1.505 23.99 -1 25 C-0.67 16.75 -0.34 8.5 0 0 Z " fill="#120F10" transform="translate(129,39)"/>
<path d="M0 0 C2.97 0 5.94 0 9 0 C9 0.33 9 0.66 9 1 C6.36 1 3.72 1 1 1 C1.81279297 2.62558594 2.62560173 4.25116398 3.43847656 5.87670898 C4.15423105 7.30838257 4.86972007 8.74018889 5.58496094 10.17211914 C7.44117209 13.88737845 9.30125127 17.60056775 11.171875 21.30859375 C14.29913836 27.51730242 17.39120931 33.71425749 20.125 40.109375 C21.04648431 42.1004393 22.11474868 43.93618184 23.25 45.8125 C25 49 25 49 25 53 C27.7839183 51.60804085 27.97898997 49.84424221 29 47 C29.66 47 30.32 47 31 47 C31.27585938 46.14148438 31.55171875 45.28296875 31.8359375 44.3984375 C32.97457764 41.07421963 34.25849731 37.86145373 35.625 34.625 C36.29402344 33.03558594 36.29402344 33.03558594 36.9765625 31.4140625 C37.31429687 30.61742188 37.65203125 29.82078125 38 29 C38.66 29 39.32 29 40 29 C40.2475 28.175 40.495 27.35 40.75 26.5 C41.9402264 23.16736608 43.36651352 20.17239506 44.98046875 17.03515625 C46.4616024 14.0785638 47.72838664 11.05187206 49 8 C51.31 8 53.62 8 56 8 C56 27.47 56 46.94 56 67 C54.68 67 53.36 67 52 67 C52 49.84 52 32.68 52 15 C51.34 15 50.68 15 50 15 C49.7525 16.155 49.505 17.31 49.25 18.5 C48.12593652 23.06141704 46.21371309 26.86773557 44 31 C43.34 31 42.68 31 42 31 C41.7525 31.825 41.505 32.65 41.25 33.5 C40.05681796 36.84090972 38.625413 39.84294695 37.0078125 42.98828125 C35.53296278 45.93226421 34.28998385 48.97134226 33 52 C30.32142857 57.67857143 30.32142857 57.67857143 28 60 C25.875 59.625 25.875 59.625 24 59 C23.505 56.525 23.505 56.525 23 54 C22.34 54 21.68 54 21 54 C18.81023775 50.85816721 17.36699044 47.52996729 15.87670898 44.01831055 C14.25475039 40.2843279 12.49693175 36.61424718 10.75 32.9375 C10.3588501 32.1112915 9.9677002 31.28508301 9.56469727 30.43383789 C6.55285732 24.09740648 3.42487966 17.82794075 0.21484375 11.58984375 C-1 9 -1 9 -1 7 C-1.99 6.67 -2.98 6.34 -4 6 C-4.33 4.35 -4.66 2.7 -5 1 C-4.01 1.495 -4.01 1.495 -3 2 C-2.67 2.99 -2.34 3.98 -2 5 C-1.34 5.33 -0.68 5.66 0 6 C0 4.02 0 2.04 0 0 Z " fill="#222222" transform="translate(141,38)"/>
<path d="M0 0 C9.11871561 -0.6743421 13.62168216 1.7442217 20.40625 7.32421875 C22.5390625 9.48828125 22.5390625 9.48828125 22.5390625 11.48828125 C18.37181606 11.99648203 16.15466386 11.49648183 12.8515625 9.05078125 C12.29082031 8.59832031 11.73007813 8.14585938 11.15234375 7.6796875 C6.05791141 3.91745538 -1.4926594 5.02918293 -7.4609375 5.48828125 C-13.77660333 7.01733719 -18.22208679 9.47873042 -22.4609375 14.48828125 C-22.95335938 14.91367187 -23.44578125 15.3390625 -23.953125 15.77734375 C-29.66478336 22.25844831 -30.02966019 33.04575801 -29.80078125 41.23046875 C-29.33462809 45.69910936 -28.17544864 49.34487933 -26.4609375 53.48828125 C-29.2611607 52.08816965 -30.02869848 50.22255574 -31.4609375 47.48828125 C-31.4609375 46.49828125 -31.4609375 45.50828125 -31.4609375 44.48828125 C-32.7809375 44.48828125 -34.1009375 44.48828125 -35.4609375 44.48828125 C-35.7909375 41.84828125 -36.1209375 39.20828125 -36.4609375 36.48828125 C-36.1309375 36.48828125 -35.8009375 36.48828125 -35.4609375 36.48828125 C-35.35136719 35.77542969 -35.24179687 35.06257813 -35.12890625 34.328125 C-33.46499206 24.27700106 -30.56497715 17.77851549 -23.4609375 10.48828125 C-22.8628125 9.84246094 -22.2646875 9.19664063 -21.6484375 8.53125 C-15.31123044 2.26005552 -8.57649038 1.21000146 0 0 Z " fill="#3E3F3F" transform="translate(90.4609375,46.51171875)"/>
<path d="M0 0 C0.84884766 0.37125 0.84884766 0.37125 1.71484375 0.75 C0.88984375 1.141875 0.06484375 1.53375 -0.78515625 1.9375 C-1.61015625 2.535625 -2.43515625 3.13375 -3.28515625 3.75 C-3.70296504 6.37694422 -3.70296504 6.37694422 -3.28515625 8.75 C-4.06890625 8.95625 -4.85265625 9.1625 -5.66015625 9.375 C-8.44689306 10.52758025 -8.44689306 10.52758025 -9.59765625 13.125 C-10.7116562 18.99881791 -11.84538758 25.36851004 -9.2578125 30.9765625 C-5.60291602 35.73501499 -1.14403518 37.88439272 4.71484375 38.75 C10.04925728 39.05142411 15.37817667 38.92679756 20.71484375 38.75 C20.71484375 38.09 20.71484375 37.43 20.71484375 36.75 C24.43458254 33.90549386 27.08875177 33.4272494 31.71484375 33.75 C30.3357836 37.07388856 28.98615394 38.54712016 25.90234375 40.375 C25.23589844 40.77976563 24.56945312 41.18453125 23.8828125 41.6015625 C18.85039246 44.26738501 15.02428036 45.04513765 9.27734375 45.0625 C7.99988281 45.07925781 6.72242187 45.09601563 5.40625 45.11328125 C1.50835544 44.72967893 -0.93037234 43.71516708 -4.28515625 41.75 C-4.28515625 41.09 -4.28515625 40.43 -4.28515625 39.75 C-4.86265625 39.6675 -5.44015625 39.585 -6.03515625 39.5 C-9.1050089 38.47671578 -10.30496975 37.32424245 -12.28515625 34.75 C-14.87621135 27.36549297 -15.31257794 19.72269721 -13.34765625 12.125 C-5.56582209 -0.60891045 -5.56582209 -0.60891045 0 0 Z " fill="#3E3E3E" transform="translate(81.28515625,60.25)"/>
<path d="M0 0 C4.50156087 4.50156087 4.50156087 4.50156087 6.03515625 7.64453125 C6.36966797 8.32193359 6.70417969 8.99933594 7.04882812 9.69726562 C7.38333984 10.39529297 7.71785156 11.09332031 8.0625 11.8125 C8.40087891 12.49892578 8.73925781 13.18535156 9.08789062 13.89257812 C10.69249613 17.17317391 12.2191407 20.47018203 13.63671875 23.8359375 C14.91510161 27.01948579 14.91510161 27.01948579 16.75 29.8125 C17.1625 30.534375 17.575 31.25625 18 32 C17.67 32.66 17.34 33.32 17 34 C16.01 33.01 15.02 32.02 14 31 C13.67 37.6 13.34 44.2 13 51 C12.67 51 12.34 51 12 51 C11.9906543 50.40574219 11.98130859 49.81148437 11.97167969 49.19921875 C11.91747007 46.46535355 11.83392722 43.73310801 11.75 41 C11.73582031 40.06542969 11.72164062 39.13085938 11.70703125 38.16796875 C11.4943474 32.08521051 10.66754687 27.00718974 7 22 C6.01 21.34 5.02 20.68 4 20 C4 27.59 4 35.18 4 43 C2.68 43 1.36 43 0 43 C0 28.81 0 14.62 0 0 Z " fill="#323131" transform="translate(138,62)"/>
<path d="M0 0 C2.97 0 5.94 0 9 0 C9 0.33 9 0.66 9 1 C6.36 1 3.72 1 1 1 C1.81279297 2.62558594 2.62560173 4.25116398 3.43847656 5.87670898 C4.15423105 7.30838257 4.86972007 8.74018889 5.58496094 10.17211914 C7.44117209 13.88737845 9.30125127 17.60056775 11.171875 21.30859375 C14.29814975 27.51533969 17.3833118 33.71244982 20.125 40.1015625 C21.05727341 42.12426284 22.1217602 44.01792534 23.25 45.9375 C25 49 25 49 25 51 C24.34 51 23.68 51 23 51 C22.34 51.99 21.68 52.98 21 54 C18.94796508 50.7753737 17.35787494 47.53402962 15.87231445 44.01831055 C14.25741994 40.28186136 12.49667769 36.61371245 10.75 32.9375 C10.3588501 32.1112915 9.9677002 31.28508301 9.56469727 30.43383789 C6.55285732 24.09740648 3.42487966 17.82794075 0.21484375 11.58984375 C-1 9 -1 9 -1 7 C-1.99 6.67 -2.98 6.34 -4 6 C-4.33 4.35 -4.66 2.7 -5 1 C-4.01 1.495 -4.01 1.495 -3 2 C-2.67 2.99 -2.34 3.98 -2 5 C-1.34 5.33 -0.68 5.66 0 6 C0 4.02 0 2.04 0 0 Z " fill="#2C2C2C" transform="translate(141,38)"/>
<path d="M0 0 C0.33 0.66 0.66 1.32 1 2 C1.66 2 2.32 2 3 2 C2.46515599 7.34844008 0.53309233 11.35796103 -2 16 C-2.66 16 -3.32 16 -4 16 C-4.2475 16.825 -4.495 17.65 -4.75 18.5 C-5.94318204 21.84090972 -7.374587 24.84294695 -8.9921875 27.98828125 C-10.46703722 30.93226421 -11.71001615 33.97134226 -13 37 C-15.67857143 42.67857143 -15.67857143 42.67857143 -18 45 C-20 44.9375 -20 44.9375 -22 44 C-23.5225431 41.31742407 -24.12235992 39.75455283 -23.625 36.6875 C-23.41875 36.130625 -23.2125 35.57375 -23 35 C-22.34 35.33 -21.68 35.66 -21 36 C-21 36.66 -21 37.32 -21 38 C-18.2160817 36.60804085 -18.02101003 34.84424221 -17 32 C-16.34 32 -15.68 32 -15 32 C-14.58621094 30.71222656 -14.58621094 30.71222656 -14.1640625 29.3984375 C-13.02542236 26.07421963 -11.74150269 22.86145373 -10.375 19.625 C-9.92898437 18.56539062 -9.48296875 17.50578125 -9.0234375 16.4140625 C-8.68570313 15.61742188 -8.34796875 14.82078125 -8 14 C-7.34 14 -6.68 14 -6 14 C-5.7525 13.175 -5.505 12.35 -5.25 11.5 C-3.81295189 7.47626529 -1.97645485 3.78020976 0 0 Z " fill="#323332" transform="translate(187,53)"/>
<path d="M0 0 C7.26 0 14.52 0 22 0 C22.02255176 9.89189783 22.04091552 19.7837787 22.05181217 29.67569637 C22.05704082 34.2684264 22.06413812 38.861138 22.07543945 43.45385742 C22.086269 47.88233688 22.09227698 52.31079856 22.09487724 56.73929024 C22.09673137 58.43265628 22.10035175 60.12602129 22.10573006 61.81937981 C22.1129414 64.18291232 22.1139909 66.54637045 22.11352539 68.90991211 C22.11712067 69.61697296 22.12071594 70.32403381 22.12442017 71.05252075 C22.11405216 75.88594784 22.11405216 75.88594784 21 77 C19.43827255 77.08685603 17.87270656 77.10702219 16.30859375 77.09765625 C15.36435547 77.09443359 14.42011719 77.09121094 13.44726562 77.08789062 C12.45404297 77.07951172 11.46082031 77.07113281 10.4375 77.0625 C9.44041016 77.05798828 8.44332031 77.05347656 7.41601562 77.04882812 C4.94395151 77.03700007 2.47200482 77.02051849 0 77 C0 76.34 0 75.68 0 75 C6.6 75 13.2 75 20 75 C20 50.58 20 26.16 20 1 C13.4 1 6.8 1 0 1 C0 0.67 0 0.34 0 0 Z " fill="#444142" transform="translate(185,38)"/>
<path d="M0 0 C2.39533351 1.83824573 4.62988379 3.72089013 6.75 5.87207031 C6.75 6.53207031 6.75 7.19207031 6.75 7.87207031 C2.58275356 8.3802711 0.36560136 7.8802709 -2.9375 5.43457031 C-3.49824219 4.98210938 -4.05898437 4.52964844 -4.63671875 4.06347656 C-9.71379009 0.31406553 -17.30046531 1.37785976 -23.25 1.87207031 C-26.11781332 2.73933787 -28.67486126 3.77469249 -31.359375 5.09472656 C-31.98328125 5.35125 -32.6071875 5.60777344 -33.25 5.87207031 C-33.91 5.54207031 -34.57 5.21207031 -35.25 4.87207031 C-33.61348722 1.84452166 -32.00488816 0.18077857 -28.8046875 -1.12792969 C-19.17777363 -3.7977938 -8.63913825 -6.02649563 0 0 Z " fill="#1C1C1C" transform="translate(106.25,50.1279296875)"/>
<path d="M0 0 C-1.39197329 3.38256721 -2.8025496 4.83688682 -5.9375 6.6875 C-6.62714844 7.10386719 -7.31679687 7.52023438 -8.02734375 7.94921875 C-12.18665455 10.16477242 -15.97564472 10.15103702 -20.5625 10.125 C-21.24763672 10.12886719 -21.93277344 10.13273437 -22.63867188 10.13671875 C-27.7466133 10.12669335 -27.7466133 10.12669335 -30 9 C-30 8.34 -30 7.68 -30 7 C-29.13117188 6.93941406 -28.26234375 6.87882812 -27.3671875 6.81640625 C-26.21476562 6.73261719 -25.06234375 6.64882812 -23.875 6.5625 C-22.16957031 6.44068359 -22.16957031 6.44068359 -20.4296875 6.31640625 C-17.2459522 6.02269035 -14.14489093 5.56875687 -11 5 C-11 4.34 -11 3.68 -11 3 C-7.28026121 0.15549386 -4.62609198 -0.3227506 0 0 Z " fill="#171717" transform="translate(113,94)"/>
<path d="M0 0 C0.99 0.33 1.98 0.66 3 1 C3 1.66 3 2.32 3 3 C3.66 3 4.32 3 5 3 C5.33 5.31 5.66 7.62 6 10 C4.68 10 3.36 10 2 10 C2 18.25 2 26.5 2 35 C1.34 35 0.68 35 0 35 C0 23.45 0 11.9 0 0 Z " fill="#070707" transform="translate(139,69)"/>
<path d="M0 0 C0.84884766 0.37125 0.84884766 0.37125 1.71484375 0.75 C0.88984375 1.141875 0.06484375 1.53375 -0.78515625 1.9375 C-1.61015625 2.535625 -2.43515625 3.13375 -3.28515625 3.75 C-3.70296504 6.37694422 -3.70296504 6.37694422 -3.28515625 8.75 C-4.06890625 8.95625 -4.85265625 9.1625 -5.66015625 9.375 C-8.48956073 10.52660086 -8.48956073 10.52660086 -9.53515625 13.3125 C-10.43666936 17.44443508 -10.92960594 21.53953575 -11.28515625 25.75 C-12.27515625 26.08 -13.26515625 26.41 -14.28515625 26.75 C-14.67850489 18.69363706 -14.63671323 12.74901685 -9.22265625 6.2890625 C-3.0299056 -0.33147685 -3.0299056 -0.33147685 0 0 Z " fill="#505050" transform="translate(81.28515625,60.25)"/>
<path d="M0 0 C0.33 0 0.66 0 1 0 C1.05607422 1.75376953 1.05607422 1.75376953 1.11328125 3.54296875 C1.1789628 5.09117675 1.24540939 6.63935242 1.3125 8.1875 C1.33505859 8.95642578 1.35761719 9.72535156 1.38085938 10.51757812 C1.60188784 15.19936285 2.22918247 18.07467516 5 22 C5.6875 24.8125 5.6875 24.8125 6 27 C3.1997768 25.5998884 2.43223902 23.73427449 1 21 C1 20.01 1 19.02 1 18 C-0.32 18 -1.64 18 -3 18 C-3.33 15.36 -3.66 12.72 -4 10 C-3.34 10.66 -2.68 11.32 -2 12 C-1.34 8.04 -0.68 4.08 0 0 Z " fill="#343232" transform="translate(58,73)"/>
<path d="M0 0 C3.76687864 3.76687864 4.67652988 5.14727622 6 10 C5.34 10 4.68 10 4 10 C3.01 9.01 2.02 8.02 1 7 C1 18.55 1 30.1 1 42 C1.99 42.33 2.98 42.66 4 43 C2.68 43 1.36 43 0 43 C0 28.81 0 14.62 0 0 Z " fill="#373737" transform="translate(138,62)"/>
<path d="M0 0 C2.97 0 5.94 0 9 0 C9 0.33 9 0.66 9 1 C6.36 1 3.72 1 1 1 C1.433125 1.84304687 1.86625 2.68609375 2.3125 3.5546875 C2.869375 4.65039062 3.42625 5.74609375 4 6.875 C4.556875 7.96554688 5.11375 9.05609375 5.6875 10.1796875 C7 13 7 13 7 15 C6.34 15 5.68 15 5 15 C5 14.34 5 13.68 5 13 C4.34 13 3.68 13 3 13 C2.67 13.99 2.34 14.98 2 16 C1.81824219 15.36191406 1.63648438 14.72382812 1.44921875 14.06640625 C1.19785156 13.24011719 0.94648438 12.41382813 0.6875 11.5625 C0.44386719 10.73878906 0.20023438 9.91507813 -0.05078125 9.06640625 C-0.52064453 8.04353516 -0.52064453 8.04353516 -1 7 C-1.99 6.67 -2.98 6.34 -4 6 C-4.33 4.35 -4.66 2.7 -5 1 C-4.01 1.495 -4.01 1.495 -3 2 C-2.67 2.99 -2.34 3.98 -2 5 C-1.34 5.33 -0.68 5.66 0 6 C0 4.02 0 2.04 0 0 Z " fill="#454444" transform="translate(141,38)"/>
<path d="M0 0 C1.03125 0.33 2.0625 0.66 3.125 1 C9.31322256 2.58615091 15.66191329 2.16023253 22 2 C18.40537669 4.25998595 15.43404325 4.20868087 11.25 4.125 C9.49429688 4.09792969 9.49429688 4.09792969 7.703125 4.0703125 C6.36507812 4.03550781 6.36507812 4.03550781 5 4 C5 4.66 5 5.32 5 6 C9.95 6.33 14.9 6.66 20 7 C20 7.33 20 7.66 20 8 C17.62429457 8.0816082 15.25144159 8.14077222 12.875 8.1875 C12.20984375 8.21263672 11.5446875 8.23777344 10.859375 8.26367188 C6.13097708 8.33320714 3.04878521 7.40278375 -1 5 C-1 4.34 -1 3.68 -1 3 C-0.34 3 0.32 3 1 3 C0.67 2.01 0.34 1.02 0 0 Z " fill="#575757" transform="translate(78,97)"/>
<path d="M0 0 C0.33 0.66 0.66 1.32 1 2 C1.66 2 2.32 2 3 2 C2.46515599 7.34844008 0.53309233 11.35796103 -2 16 C-2.66 15.01 -3.32 14.02 -4 13 C-4.99 13.495 -4.99 13.495 -6 14 C-4.50829734 9.0276578 -2.39542583 4.58154261 0 0 Z " fill="#262626" transform="translate(187,53)"/>
<path d="M0 0 C3.39812547 0.26139427 6.79577222 0.44316051 10.19921875 0.62109375 C11.12347656 0.74613281 12.04773438 0.87117188 13 1 C13.33 1.66 13.66 2.32 14 3 C12.96101563 2.95359375 11.92203125 2.9071875 10.8515625 2.859375 C3.11721027 2.62272275 -3.09690097 2.65725354 -10.1796875 6.22265625 C-10.78039062 6.47917969 -11.38109375 6.73570313 -12 7 C-12.66 6.67 -13.32 6.34 -14 6 C-10.18559558 0.42510124 -6.56156461 -1.6662467 0 0 Z " fill="#2A2A2A" transform="translate(85,49)"/>
<path d="M0 0 C3.28465896 2.79196011 5.01321958 6.23196817 7 10 C7 10.66 7 11.32 7 12 C6.34 12 5.68 12 5 12 C4.01 13.485 4.01 13.485 3 15 C0.43015167 11.14522751 -0.85814266 7.47959418 -2 3 C-1.34 3 -0.68 3 0 3 C0 2.01 0 1.02 0 0 Z " fill="#363636" transform="translate(159,77)"/>
<path d="M0 0 C0.33 1.32 0.66 2.64 1 4 C1.66 3.34 2.32 2.68 3 2 C2.34 8.93 1.68 15.86 1 23 C0.67 23 0.34 23 0 23 C-0.33 18.38 -0.66 13.76 -1 9 C-1.12375 10.464375 -1.2475 11.92875 -1.375 13.4375 C-1.5859375 15.93359375 -1.5859375 15.93359375 -2 18 C-2.66 18.33 -3.32 18.66 -4 19 C-3.63176001 12.09232563 -2.76081837 6.3618858 0 0 Z " fill="#8F8F8F" transform="translate(59,67)"/>
<path d="M0 0 C3 1 3 1 4 3 C5.32 2.67 6.64 2.34 8 2 C7.67 4.31 7.34 6.62 7 9 C5.68 9.33 4.36 9.66 3 10 C0.96564469 6.27034861 0 4.33094958 0 0 Z " fill="#1A1A1A" transform="translate(163,88)"/>
<path d="M0 0 C-1.49835228 4.66154042 -4.88463591 5.86610751 -9 8 C-9 7.01 -9 6.02 -9 5 C-9.66 4.34 -10.32 3.68 -11 3 C-7.16674383 0.29417212 -4.67461851 -0.32613618 0 0 Z " fill="#3A3A3A" transform="translate(113,94)"/>
<path d="M0 0 C7.71428571 4 7.71428571 4 9 8 C6.3125 8.3125 6.3125 8.3125 3 8 C0.125 5.5 0.125 5.5 -2 3 C-1.34 2.67 -0.68 2.34 0 2 C0 1.34 0 0.68 0 0 Z " fill="#2D2D2D" transform="translate(104,50)"/>
<path d="M0 0 C4.29 0 8.58 0 13 0 C12.67 0.99 12.34 1.98 12 3 C10.37509046 3.02698189 8.75005367 3.04638757 7.125 3.0625 C5.76761719 3.07990234 5.76761719 3.07990234 4.3828125 3.09765625 C2 3 2 3 0 2 C0 1.34 0 0.68 0 0 Z " fill="#0A0A0A" transform="translate(83,101)"/>
<path d="M0 0 C0.66 0 1.32 0 2 0 C0.60249952 3.15835107 -1.05198234 5.32272825 -3.5 7.75 C-4.41265625 8.67039062 -4.41265625 8.67039062 -5.34375 9.609375 C-7 11 -7 11 -9 11 C-7.44095325 7.17324889 -4.96833913 4.81992217 -2 2 C-1.34 1.34 -0.68 0.68 0 0 Z " fill="#D2D3D3" transform="translate(73,55)"/>
<path d="M0 0 C0.66 0.33 1.32 0.66 2 1 C0.75796305 2.46512126 -0.49397056 3.92185645 -1.75 5.375 C-2.44609375 6.18710937 -3.1421875 6.99921875 -3.859375 7.8359375 C-5.85949643 9.85795807 -7.39531129 10.93231229 -10 12 C-8.52278578 8.54798361 -6.56205999 6.35038064 -3.875 3.75 C-3.15054688 3.04359375 -2.42609375 2.3371875 -1.6796875 1.609375 C-1.12539062 1.07828125 -0.57109375 0.5471875 0 0 Z " fill="#C1C0C0" transform="translate(70,44)"/>
<path d="M0 0 C4.67692308 1.47692308 4.67692308 1.47692308 6.3125 4.125 C6.539375 4.74375 6.76625 5.3625 7 6 C4.625 6.1875 4.625 6.1875 2 6 C0 3 0 3 0 0 Z " fill="#242424" transform="translate(72,94)"/>
<path d="M0 0 C0.33 0.99 0.66 1.98 1 3 C1.99 2.67 2.98 2.34 4 2 C7.80984844 4.77079887 8.06840752 8.62868145 9 13 C6.1997768 11.5998884 5.43223902 9.73427449 4 7 C4 6.01 4 5.02 4 4 C2.68 4 1.36 4 0 4 C0 2.68 0 1.36 0 0 Z " fill="#575556" transform="translate(55,87)"/>
<path d="M0 0 C2.15377564 2.62198774 3.40072174 4.64404172 4 8 C3.01 8 2.02 8 1 8 C0.67 8.99 0.34 9.98 0 11 C-0.66 10.67 -1.32 10.34 -2 10 C-2 9.34 -2 8.68 -2 8 C-1.34 7.67 -0.68 7.34 0 7 C0 4.69 0 2.38 0 0 Z " fill="#575757" transform="translate(144,72)"/>
<path d="M0 0 C3.48331435 3.01887244 4.79157144 5.56909529 6 10 C4 10 4 10 2.4375 8.9375 C0.35943153 6.13662511 0.32189473 3.41208416 0 0 Z " fill="#4C4C4C" transform="translate(138,62)"/>
<path d="M0 0 C0 0.99 0 1.98 0 3 C0.33 3.99 0.66 4.98 1 6 C0.67 6.66 0.34 7.32 0 8 C-0.66 8 -1.32 8 -2 8 C-2.33 8.99 -2.66 9.98 -3 11 C-4.3968009 6.80959731 -2.86445675 4.87233324 -1 1 C-0.67 0.67 -0.34 0.34 0 0 Z " fill="#555656" transform="translate(63,61)"/>
<path d="M0 0 C1.5 1.375 1.5 1.375 3 3 C3 3.66 3 4.32 3 5 C2.34 5 1.68 5 1 5 C1.33 6.98 1.66 8.96 2 11 C1.34 10.67 0.68 10.34 0 10 C-0.73075648 7.6859378 -1.40138258 5.35171131 -2 3 C-1.34 3 -0.68 3 0 3 C0 2.01 0 1.02 0 0 Z " fill="#424242" transform="translate(159,77)"/>
<path d="M0 0 C0.66 0 1.32 0 2 0 C2 0.66 2 1.32 2 2 C2.66 2 3.32 2 4 2 C4 3.65 4 5.3 4 7 C3.01 7 2.02 7 1 7 C0.67 4.69 0.34 2.38 0 0 Z " fill="#1E1E1E" transform="translate(155,73)"/>
<path d="M0 0 C4 4.75 4 4.75 4 7 C3.34 7 2.68 7 2 7 C2 6.34 2 5.68 2 5 C1.34 5 0.68 5 0 5 C-0.33 5.99 -0.66 6.98 -1 8 C-1.66 6.02 -2.32 4.04 -3 2 C-2.34 2 -1.68 2 -1 2 C-0.67 1.34 -0.34 0.68 0 0 Z " fill="#414141" transform="translate(153,64)"/>
<path d="M0 0 C1.32 0.33 2.64 0.66 4 1 C4 1.66 4 2.32 4 3 C2.03533587 4.06775224 0.03144641 5.06553465 -2 6 C-2.66 5.67 -3.32 5.34 -4 5 C-2.68 3.35 -1.36 1.7 0 0 Z " fill="#343434" transform="translate(75,50)"/>
<path d="M0 0 C0.93065133 2.60582371 1.14917407 3.64198224 0.0625 6.25 C-0.4634375 7.11625 -0.4634375 7.11625 -1 8 C-1.99 8 -2.98 8 -4 8 C-2.25 2.25 -2.25 2.25 0 0 Z " fill="#101110" transform="translate(183,65)"/>
<path d="M0 0 C1.65 0 3.3 0 5 0 C4.34 1.98 3.68 3.96 3 6 C2.34 5.01 1.68 4.02 1 3 C0.01 3.495 0.01 3.495 -1 4 C-0.67 2.68 -0.34 1.36 0 0 Z " fill="#3C3C3C" transform="translate(182,63)"/>
</svg>
